<svg xmlns="http://www.w3.org/2000/svg" xmlns:xlink="http://www.w3.org/1999/xlink" version="1.1" x="0px" y="0px" viewBox="0 0 64 80" enable-background="new 0 0 64 64" xml:space="preserve"><rect x="6.91" y="45.221" width="8.89" height="1"/><rect x="9.486" y="48.184" width="4.123" height="1"/><rect x="6.91" y="51.147" width="8.89" height="1"/><rect x="27.137" y="30.276" width="8.89" height="1"/><rect x="29.714" y="33.239" width="4.122" height="1"/><rect x="27.137" y="36.202" width="8.89" height="1"/><rect x="4.462" y="12.497" width="8.89" height="1"/><rect x="7.039" y="15.46" width="4.122" height="1"/><rect x="4.462" y="18.423" width="8.89" height="1"/><rect x="28.36" y="7.601" width="8.89" height="1"/><rect x="30.938" y="10.564" width="4.122" height="1"/><rect x="28.36" y="13.528" width="8.89" height="1"/><rect x="40.535" y="53.338" width="8.89" height="1"/><rect x="43.112" y="56.301" width="4.122" height="1"/><rect x="40.535" y="59.264" width="8.89" height="1"/><path d="M60.891,11.208h-5.104V8.632H41.164v-6.07C41.164,1.149,40.015,0,38.603,0H27.008c-1.413,0-2.562,1.149-2.562,2.562v13.141  c0,1.412,1.149,2.561,2.562,2.561h5.49v1.577h-1.417v2.834h-5.297c-1.413,0-2.562,1.149-2.562,2.562v5.04H9.406V23.16h5.298  c1.413,0,2.562-1.149,2.562-2.562V7.457c0-1.413-1.149-2.562-2.562-2.562H3.109c-1.413,0-2.562,1.149-2.562,2.562v13.141  c0,1.413,1.149,2.562,2.562,2.562h5.297v8.116h14.816v7.101c0,1.412,1.149,2.562,2.562,2.562h5.49v7.245H19.714v-8.003  c0-1.412-1.149-2.562-2.562-2.562H5.557c-1.412,0-2.561,1.149-2.561,2.562v13.142c0,1.412,1.148,2.562,2.561,2.562h11.596  c1.413,0,2.562-1.149,2.562-2.562v-4.139h12.561v-8.245h5.104c1.412,0,2.562-1.149,2.562-2.562v-6.07h4.54v13.43h-5.298  c-1.412,0-2.562,1.149-2.562,2.562v13.141c0,1.412,1.149,2.562,2.562,2.562h11.595c1.412,0,2.562-1.149,2.562-2.562V48.298  c0-1.412-1.149-2.562-2.562-2.562H45.48v-14.43h-5.54v-6.07c0-1.413-1.149-2.562-2.562-2.562h-5.298V20.84h1.417v-2.577h5.104  c1.412,0,2.562-1.149,2.562-2.561V9.632h13.623v1.577h-5.491c-1.412,0-2.562,1.149-2.562,2.562v13.141  c0,1.412,1.149,2.561,2.562,2.561h11.595c1.412,0,2.562-1.149,2.562-2.561V13.77C63.452,12.357,62.303,11.208,60.891,11.208z   M3.109,5.896h11.595c0.861,0,1.562,0.701,1.562,1.562v1.175H1.548V7.457C1.548,6.596,2.249,5.896,3.109,5.896z M1.548,20.598V9.632  h14.718v10.966c0,0.861-0.701,1.562-1.562,1.562H3.109C2.249,22.16,1.548,21.459,1.548,20.598z M5.557,38.619h11.596  c0.861,0,1.562,0.7,1.562,1.562v1.175H3.996v-1.175C3.996,39.319,4.696,38.619,5.557,38.619z M17.152,54.884H5.557  c-0.86,0-1.561-0.7-1.561-1.562V42.355h14.718v10.967C18.714,54.184,18.013,54.884,17.152,54.884z M50.777,63H39.183  c-0.861,0-1.562-0.7-1.562-1.562V50.473h14.718v10.966C52.339,62.3,51.639,63,50.777,63z M52.339,48.298v1.175H37.621v-1.175  c0-0.861,0.7-1.562,1.562-1.562h11.595C51.639,46.736,52.339,47.437,52.339,48.298z M37.379,39.938H25.784  c-0.861,0-1.562-0.7-1.562-1.562V27.411H38.94v10.966C38.94,39.238,38.24,39.938,37.379,39.938z M38.94,25.236v1.175H24.223v-1.175  c0-0.861,0.701-1.562,1.562-1.562h11.595C38.24,23.675,38.94,24.375,38.94,25.236z M27.008,1h11.595  c0.861,0,1.562,0.701,1.562,1.562v1.175H25.446V2.562C25.446,1.701,26.147,1,27.008,1z M38.603,17.264H27.008  c-0.861,0-1.562-0.7-1.562-1.561V4.736h14.718v10.966C40.164,16.563,39.464,17.264,38.603,17.264z M49.296,12.208h11.595  c0.861,0,1.562,0.701,1.562,1.562v1.175H47.734V13.77C47.734,12.909,48.435,12.208,49.296,12.208z M60.891,28.472H49.296  c-0.861,0-1.562-0.7-1.562-1.561V15.945h14.718v10.966C62.452,27.772,61.752,28.472,60.891,28.472z"/><rect x="50.648" y="18.81" width="8.89" height="1"/><rect x="53.226" y="21.773" width="4.123" height="1"/><rect x="50.648" y="24.736" width="8.89" height="1"/></svg>