<svg xmlns="http://www.w3.org/2000/svg" xmlns:xlink="http://www.w3.org/1999/xlink" version="1.1" x="0px" y="0px" viewBox="0 0 64 80" style="enable-background:new 0 0 64 64;" xml:space="preserve"><g><path d="M60,52c-0.807,0-1.537,0.324-2.077,0.844L51,49.382V32.473C57.889,30.69,63,24.439,63,17c0-8.822-7.178-16-16-16   c-4.951,0-9.5,2.3-12.47,6H1v56h50V51.618l6.037,3.018C57.022,54.757,57,54.876,57,55c0,1.654,1.346,3,3,3s3-1.346,3-3   S61.654,52,60,52z M46,30.958C40.59,30.569,35.877,27.051,33.945,22h2.387c1.79,4.025,5.391,6.606,9.668,6.956V30.958z M48,28.949   c0.743-0.062,1.464-0.195,2.163-0.386l0.914,1.828c-0.984,0.3-2.015,0.483-3.077,0.559V28.949z M54.037,26.699l1.137,1.643   c-0.698,0.504-1.443,0.943-2.229,1.314l-0.893-1.787C52.754,27.542,53.417,27.15,54.037,26.699z M56.717,27.056l-1.153-1.666   c0.47-0.479,0.898-0.998,1.283-1.551l1.742,1.006C58.043,25.648,57.412,26.385,56.717,27.056z M59.578,23.107l-1.735-1.002   C58.577,20.554,59,18.827,59,17s-0.423-3.554-1.156-5.106l1.735-1.002C60.48,12.741,61,14.809,61,17S60.48,21.259,59.578,23.107z    M58.588,9.155l-1.742,1.006C54.857,7.304,51.66,5.355,48,5.051v-2C52.398,3.364,56.245,5.704,58.588,9.155z M46,3.042v2.002   c-4.277,0.349-7.878,2.93-9.668,6.956h-2.387C35.877,6.949,40.59,3.431,46,3.042z M49,61H3V9h30.165   c-0.543,0.939-0.988,1.944-1.336,3H18v2h19.688l0.245-0.643C39.435,9.436,42.908,7,47,7c5.514,0,10,4.486,10,10s-4.486,10-10,10   c-4.092,0-7.565-2.436-9.066-6.357L37.688,20H18v2h13.829c2.145,6.514,8.26,11,15.171,11c0.679,0,1.343-0.056,2-0.139v15.521   l-4.037-2.018C44.978,46.243,45,46.124,45,46c0-1.654-1.346-3-3-3s-3,1.346-3,3c0,0.092,0.019,0.18,0.027,0.27l-7.883,3.639   C30.599,49.35,29.841,49,29,49c-0.768,0-1.461,0.298-1.992,0.774l-6.055-3.302C20.977,46.317,21,46.161,21,46c0-1.654-1.346-3-3-3   s-3,1.346-3,3c0,0.462,0.113,0.894,0.301,1.285l-6.015,6.015C8.894,53.113,8.462,53,8,53c-1.654,0-3,1.346-3,3s1.346,3,3,3   s3-1.346,3-3c0-0.462-0.113-0.894-0.301-1.285l6.015-6.015C17.106,48.887,17.538,49,18,49c0.768,0,1.461-0.298,1.992-0.774   l6.055,3.302C26.023,51.683,26,51.839,26,52c0,1.654,1.346,3,3,3s3-1.346,3-3c0-0.093-0.019-0.18-0.027-0.27l7.883-3.639   C40.401,48.65,41.159,49,42,49c0.807,0,1.537-0.324,2.077-0.844L49,50.618V61z M43,46c0,0.552-0.448,1-1,1s-1-0.448-1-1   s0.448-1,1-1S43,45.448,43,46z M30,52c0,0.552-0.448,1-1,1s-1-0.448-1-1s0.448-1,1-1S30,51.448,30,52z M17,46c0-0.552,0.448-1,1-1   s1,0.448,1,1s-0.448,1-1,1S17,46.552,17,46z M9,56c0,0.552-0.448,1-1,1s-1-0.448-1-1s0.448-1,1-1S9,55.448,9,56z M60,56   c-0.552,0-1-0.448-1-1s0.448-1,1-1s1,0.448,1,1S60.552,56,60,56z"/><path d="M29,27H7v14h22V27z M27,39H9V29h18V39z"/><rect x="11" y="31" width="14" height="2"/><rect x="11" y="35" width="8" height="2"/><rect x="21" y="35" width="4" height="2"/><rect x="36" y="16" width="2" height="2"/><rect x="32" y="16" width="2" height="2"/><rect x="28" y="16" width="2" height="2"/><rect x="24" y="16" width="2" height="2"/><rect x="20" y="16" width="2" height="2"/></g></svg>