<svg xmlns="http://www.w3.org/2000/svg" xmlns:xlink="http://www.w3.org/1999/xlink" xml:space="preserve" version="1.1" style="shape-rendering:geometricPrecision;text-rendering:geometricPrecision;image-rendering:optimizeQuality;" viewBox="0 0 176 180" x="0px" y="0px" fill-rule="evenodd" clip-rule="evenodd"><defs><style type="text/css">
   
    .fil0 {fill:black}
   
  </style></defs><g><path class="fil0" d="M66 105c6,6 21,13 27,18 6,6 22,20 26,21 5,1 9,-3 11,-4 3,-1 6,1 6,-3 1,-3 0,-4 -7,-8 -6,-4 -20,-6 -28,-23 0,0 -3,-17 -8,-22 -5,-5 -5,-7 -10,-10 -6,-4 -12,-7 -14,-8 -8,-3 -9,-2 -11,-9 0,0 -2,-1 -7,3 -4,4 -8,5 -5,8 3,4 9,3 12,8 4,5 3,22 8,29z"/><path class="fil0" d="M104 78c0,0 2,6 6,7 18,2 15,20 39,25 4,1 13,3 15,3 7,3 6,1 9,-7 0,0 5,-2 2,-7 -2,-5 -9,-15 -14,-19 -5,-5 -17,-14 -18,-15 -1,-1 -22,-21 -22,-21 0,0 -3,-8 -6,-10 -3,-3 -11,-3 -16,-5 -4,-1 -11,-4 -16,-3 -5,1 -12,10 -16,13 -5,2 -7,3 -7,4 0,1 10,4 10,4 0,0 -3,7 -5,9 -2,1 -4,2 -4,3 0,0 24,12 27,16 3,4 3,5 5,5 1,0 5,-5 11,-2zm0 -9c1,0 2,0 3,-2 1,-1 2,-3 1,-5 0,-2 -2,-6 -2,-7 -1,0 -2,1 -2,3 1,2 1,4 1,5 -1,2 -2,4 -3,5 -1,1 2,1 2,1zm6 -11c0,0 2,0 2,-1 1,-2 3,-6 2,-8 -1,-2 -2,-4 -4,-4 -2,0 -4,1 -5,4 0,3 5,9 5,9zm29 23c0,0 3,-1 1,-9 -3,-8 -6,-13 -9,-15 -4,-2 -8,-2 -10,3 -3,6 -4,6 -5,7 -2,1 -1,5 2,8 4,3 15,11 21,6zm12 5c0,0 -1,-3 -3,-5 -1,-1 -3,-1 -4,0 -1,1 -2,3 -1,4 1,2 7,3 8,1zm14 3c0,0 6,5 6,7 1,1 2,5 1,6 0,2 -1,3 -3,2 -2,-2 -3,-5 -3,-7 -1,-3 -3,-9 -1,-8z"/><path class="fil0" d="M53 74c0,0 2,0 2,1 1,1 0,3 0,3 0,0 3,2 3,3 -1,1 -2,3 -4,3 -1,0 -7,3 -9,5 -3,1 -16,5 -19,6 -4,0 -6,-1 -6,-2 1,-1 2,-2 3,-3 2,-1 0,-2 1,-3 0,-1 0,2 4,2 4,-1 10,-3 15,-6 4,-3 7,-4 8,-6 0,-1 0,-3 2,-3z"/><path class="fil0" d="M50 77c-4,-9 -16,-10 -7,-3 0,0 2,3 3,5l4 -2z"/><path class="fil0" d="M55 94c0,0 -1,-4 -2,-8l-3 1c1,1 2,3 3,6 0,1 -1,1 0,2 1,1 2,0 2,-1z"/><path class="fil0" d="M42 82c-1,-2 -4,-5 -6,-6 -2,-2 -4,-6 -4,-1 1,4 6,5 8,8 1,0 1,-1 2,-1z"/><path class="fil0" d="M49 99c0,-1 -1,-4 -1,-7 0,0 -1,-1 -2,-3 -1,1 -1,1 -3,2 1,1 1,1 1,2 2,3 2,6 3,7 1,1 2,-1 2,-1z"/><path class="fil0" d="M160 114c-1,1 -4,4 -5,5 -2,0 -5,1 -5,1l5 -7c2,1 3,1 5,1 0,0 0,0 0,0z"/><path class="fil0" d="M154 113c-1,1 -3,4 -5,4 -1,1 -4,2 -4,2l4 -7c2,0 4,1 5,1z"/><path class="fil0" d="M148 112c-1,1 -3,3 -4,4 -2,1 -5,2 -5,2l4 -7c2,0 3,0 5,1z"/><path class="fil0" d="M141 110c-1,1 -4,3 -5,3 -2,1 -6,2 -6,2l7 -7c2,1 3,1 4,2z"/><path class="fil0" d="M135 107c-1,0 -4,1 -5,1 -2,1 -6,0 -6,0l7 -4c2,1 3,2 4,3z"/><path class="fil0" d="M130 102c-2,1 -5,2 -6,2 -2,0 -6,0 -6,0l9 -5 0 1c1,1 2,2 3,2z"/><path class="fil0" d="M126 98c0,0 -6,0 -8,0 -1,-1 -5,-2 -5,-2l10 -2c0,0 0,1 0,1l3 3z"/><path class="fil0" d="M135 130c0,-1 1,-2 1,-3 1,-1 2,-5 2,-5l-7 6c2,1 3,2 4,2z"/><path class="fil0" d="M130 127c1,-1 2,-2 2,-3 0,-1 1,-5 1,-5l-7 7c2,0 3,1 4,1z"/><path class="fil0" d="M124 125c1,-2 1,-3 2,-4 0,-2 0,-6 0,-6l-5 8 0 0c1,0 2,1 3,1 0,1 0,1 0,1z"/><path class="fil0" d="M120 122c0,-1 1,-4 1,-5 0,-1 0,-5 0,-5l-5 7 1 2c1,0 2,1 3,1z"/><path class="fil0" d="M111 116c0,-2 1,-5 1,-6 0,-2 0,-6 0,-6l-4 8 1 2c0,1 1,1 2,2z"/><path class="fil0" d="M106 110c0,-1 1,-5 2,-6 0,-2 -1,-6 -1,-6l-4 7c1,2 2,4 3,5z"/><path class="fil0" d="M104 17c2,-2 -2,-6 -3,-9 -2,-3 0,-7 -2,-8 -2,-1 -5,3 -9,6 -4,4 -48,17 -51,17 -3,1 -10,-3 -13,-2 -3,2 -2,7 2,8 4,1 0,4 0,6 0,3 6,7 9,4 4,-3 7,-10 9,-11 2,0 42,-15 46,-13 3,0 5,6 12,2z"/><path class="fil0" d="M22 48c-1,-3 -6,0 -9,0 -3,0 -6,-3 -8,-2 -2,2 1,6 3,11 2,5 -1,51 -2,54 0,3 -7,8 -6,11 1,4 6,4 8,1 2,-3 3,1 6,2 2,1 8,-2 6,-7 -2,-5 -7,-10 -7,-12 0,-2 1,-45 3,-48 2,-2 8,-3 6,-10z"/></g></svg>